# xmcd
#
# Track frame offsets:
#	150
#	24314
#	60070
#	70947
#	84727
#	114883
#	147119
#	180330
#	202539
#
# Disc length: 2952 seconds
#
# Revision: 1
# Processed by: cddbd v1.5PL3 Copyright (c) Steve Scherf et al.
# Submitted via: audiograbber 1.82.01
#
DISCID=600b8609
DTITLE=B B King - 2001-06-30 - Piazza Blues Festival,Bellinzona, Switzerland - 
DTITLE=Disc 1
DYEAR=1900
DGENRE=
TTITLE0=B B King - Opener
TTITLE1=B B King - Ain`t No Love In The Heart Of The City
TTITLE2=B B King - Introducing B.B.King Jam
TTITLE3=B B King - Let The Good Times Roll
TTITLE4=B B King - I`ll Survive
TTITLE5=B B King - Bad Case Of Love
TTITLE6=B B King - Peace Of Mind
TTITLE7=B B King - Caledonia
TTITLE8=B B King - Summertime
EXTD=
EXTT0=
EXTT1=
EXTT2=
EXTT3=
EXTT4=
EXTT5=
EXTT6=
EXTT7=
EXTT8=
PLAYORDER=
